<svg width="23" height="24" viewBox="0 0 23 24" fill="none" xmlns="http://www.w3.org/2000/svg">
<path d="M15.3322 12.8626V16.8876C15.3322 20.2417 13.9905 21.5834 10.6364 21.5834H6.61136C3.25719 21.5834 1.91553 20.2417 1.91553 16.8876V12.8626C1.91553 9.50841 3.25719 8.16675 6.61136 8.16675H10.6364C13.9905 8.16675 15.3322 9.50841 15.3322 12.8626Z" stroke="#060606" stroke-width="2" stroke-linecap="round" stroke-linejoin="round"/>
<path d="M21.0822 7.11258V11.1376C21.0822 14.4917 19.7405 15.8334 16.3864 15.8334H15.3322V12.8626C15.3322 9.50841 13.9905 8.16675 10.6364 8.16675H7.66553V7.11258C7.66553 3.75841 9.00719 2.41675 12.3614 2.41675H16.3864C19.7405 2.41675 21.0822 3.75841 21.0822 7.11258Z" stroke="#060606" stroke-width="2" stroke-linecap="round" stroke-linejoin="round"/>
</svg>
