<svg width="70" height="70" viewBox="0 0 70 70" fill="none" xmlns="http://www.w3.org/2000/svg">
<g filter="url(#filter0_d_0_100)">
<rect x="0.584961" y="0.970703" width="66" height="66" fill="white"/>
<rect x="1.58496" y="1.9707" width="64" height="64" stroke="black" stroke-width="2"/>
<path d="M43.6103 25.6795L24.6436 33.1545C23.3492 33.6859 23.3567 34.4239 24.4061 34.753L29.2756 36.3055L40.5423 29.0404C41.075 28.7091 41.5617 28.8873 41.1616 29.2503L32.0334 37.6699H32.0313L32.0334 37.671L31.6975 42.8009C32.1896 42.8009 32.4068 42.5702 32.6828 42.298L35.048 39.9473L39.9678 43.6613C40.8749 44.1719 41.5264 43.9095 41.7521 42.8031L44.9817 27.2473C45.3123 25.8927 44.4757 25.2794 43.6103 25.6795Z" fill="black"/>
</g>
<defs>
<filter id="filter0_d_0_100" x="0.584961" y="0.970703" width="69" height="69" filterUnits="userSpaceOnUse" color-interpolation-filters="sRGB">
<feFlood flood-opacity="0" result="BackgroundImageFix"/>
<feColorMatrix in="SourceAlpha" type="matrix" values="0 0 0 0 0 0 0 0 0 0 0 0 0 0 0 0 0 0 127 0" result="hardAlpha"/>
<feOffset dx="3" dy="3"/>
<feComposite in2="hardAlpha" operator="out"/>
<feColorMatrix type="matrix" values="0 0 0 0 0 0 0 0 0 0 0 0 0 0 0 0 0 0 0.12 0"/>
<feBlend mode="normal" in2="BackgroundImageFix" result="effect1_dropShadow_0_100"/>
<feBlend mode="normal" in="SourceGraphic" in2="effect1_dropShadow_0_100" result="shape"/>
</filter>
</defs>
</svg>
